<svg width="22" height="22" viewBox="0 0 22 22" fill="none" xmlns="http://www.w3.org/2000/svg">
<g filter="url(#filter0_d)">
<path d="M10.9198 2.00055C7.60639 2.04489 4.95645 4.76719 5.00054 8.08074C5.04489 11.3929 7.76695 14.0435 11.0803 13.9995C14.3931 13.9548 17.0435 11.2326 16.9995 7.91926C16.9551 4.60688 14.2329 1.95633 10.9198 2.00055ZM10.9021 11.6522L10.869 11.6516C10.3587 11.6365 9.99897 11.2606 10.0134 10.7579C10.0277 10.2638 10.3961 9.90512 10.8896 9.90512L10.9192 9.90565C11.4437 9.92117 11.7994 10.2933 11.7846 10.8105C11.77 11.306 11.4073 11.6522 10.9021 11.6522ZM13.0484 7.39231C12.9284 7.56279 12.6646 7.77448 12.3321 8.03352L11.9659 8.2863C11.7649 8.44256 11.6436 8.58956 11.5981 8.73422C11.5622 8.84808 11.5446 8.87821 11.5415 9.10987L11.541 9.16869H10.143L10.147 9.05039C10.1641 8.56413 10.1761 8.27809 10.3776 8.04174C10.6938 7.67052 11.3912 7.22144 11.4209 7.20239C11.5208 7.12713 11.605 7.04144 11.6678 6.94987C11.8145 6.74757 11.8795 6.58831 11.8795 6.43179C11.8795 6.21462 11.815 6.01375 11.6876 5.83492C11.5651 5.66236 11.3324 5.57497 10.9959 5.57497C10.6621 5.57497 10.4336 5.68088 10.2969 5.89818C10.1563 6.12162 10.0852 6.35627 10.0852 6.59601V6.65561H8.64374L8.64635 6.5934C8.68353 5.71049 8.99866 5.07475 9.58262 4.7038C9.94954 4.46758 10.4061 4.34784 10.9388 4.34784C11.6361 4.34784 12.2247 4.51728 12.6882 4.85145C13.1577 5.19006 13.3959 5.69718 13.3959 6.35875C13.3959 6.72879 13.279 7.0764 13.0484 7.39231Z" fill="#00ADEE"/>
</g>
<defs>
<filter id="filter0_d" x="0" y="0" width="22" height="22" filterUnits="userSpaceOnUse" color-interpolation-filters="sRGB">
<feFlood flood-opacity="0" result="BackgroundImageFix"/>
<feColorMatrix in="SourceAlpha" type="matrix" values="0 0 0 0 0 0 0 0 0 0 0 0 0 0 0 0 0 0 127 0"/>
<feOffset dy="3"/>
<feGaussianBlur stdDeviation="2.5"/>
<feColorMatrix type="matrix" values="0 0 0 0 0 0 0 0 0 0.678431 0 0 0 0 0.933333 0 0 0 0.5 0"/>
<feBlend mode="normal" in2="BackgroundImageFix" result="effect1_dropShadow"/>
<feBlend mode="normal" in="SourceGraphic" in2="effect1_dropShadow" result="shape"/>
</filter>
</defs>
</svg>
